<?xml version="1.0" encoding="UTF-8"?>
<svg width="256px" height="256px" viewBox="0 0 256 256" version="1.1" xmlns="http://www.w3.org/2000/svg" xmlns:xlink="http://www.w3.org/1999/xlink">
    <title>si-fav-256px</title>
    <g id="si-fav-256px" stroke="none" stroke-width="1" fill="none" fill-rule="evenodd">
        <path d="M71.461701,158.971888 C71.461701,165.140593 72.5864098,170.366779 74.8358611,174.650602 C77.0853125,178.934426 80.0701165,182.404271 83.790363,185.060241 C87.5106094,187.716211 91.8796704,189.686741 96.8976772,190.971888 C101.915684,192.257035 107.106648,192.899598 112.470724,192.899598 C116.104453,192.899598 119.997676,192.599735 124.150509,192 C128.303342,191.400265 132.196565,190.24365 135.830294,188.53012 C139.464023,186.816591 142.492085,184.460524 144.914571,181.461847 C147.337057,178.463171 148.548282,174.650626 148.548282,170.024096 C148.548282,165.054861 146.947735,161.028128 143.746592,157.943775 C140.54545,154.859422 136.349421,152.289167 131.15838,150.232932 C125.967338,148.176697 120.084246,146.377518 113.508927,144.835341 C106.933608,143.293165 100.271871,141.579661 93.5235171,139.694779 C86.6021284,137.98125 79.8538757,135.882208 73.2785565,133.39759 C66.7032372,130.912973 60.8201451,127.700154 55.6291036,123.759036 C50.4380621,119.817919 46.2420332,114.891596 43.0408909,108.97992 C39.8397487,103.068244 38.2392016,95.9143659 38.2392016,87.5180723 C38.2392016,78.093661 40.272329,69.9116813 44.3386448,62.9718876 C48.4049607,56.0320938 53.7256984,50.2490191 60.3010176,45.62249 C66.8763369,40.9959608 74.3167181,37.5689536 82.6223845,35.3413655 C90.9280509,33.1137773 99.2335927,32 107.539259,32 C117.229203,32 126.52968,33.0709398 135.440968,35.2128514 C144.352256,37.3547631 152.268475,40.8246079 159.189864,45.62249 C166.111252,50.420372 171.605022,56.5461475 175.671338,64 C179.737654,71.4538525 181.770781,80.4925841 181.770781,91.1164659 L142.319063,91.1164659 C141.972994,85.633172 140.805027,81.0923875 138.815128,77.4939759 C136.825228,73.8955643 134.186489,71.0682834 130.898829,69.0120482 C127.611169,66.955813 123.847721,65.4993349 119.60837,64.6425703 C115.36902,63.7858056 110.74041,63.3574297 105.722404,63.3574297 C102.434744,63.3574297 99.1471337,63.7001304 95.8594741,64.3855422 C92.5718145,65.0709539 89.5870104,66.2704064 86.9049723,67.9839357 C84.2229342,69.6974651 82.0167746,71.8393446 80.2864275,74.4096386 C78.5560803,76.9799325 77.6909197,80.2355894 77.6909197,84.1767068 C77.6909197,87.7751184 78.3830482,90.6880745 79.7673259,92.9156627 C81.1516036,95.1432508 83.8768596,97.1994551 87.9431754,99.0843373 C92.0094912,100.96922 97.6330352,102.854074 104.813976,104.738956 C111.994917,106.623838 121.381909,109.022743 132.975235,111.935743 C136.43593,112.621155 141.237571,113.863445 147.380303,115.662651 C153.523036,117.461856 159.622418,120.331975 165.678633,124.273092 C171.734848,128.21421 176.96907,133.483233 181.381455,140.080321 C185.79384,146.677409 188,155.116414 188,165.39759 C188,173.793884 186.356195,181.590325 183.068535,188.787149 C179.780876,195.983972 174.892718,202.195422 168.403916,207.421687 C161.915114,212.647951 153.869121,216.717522 144.265694,219.630522 C134.662267,222.543522 123.544953,224 110.913419,224 C100.704371,224 90.798282,222.75771 81.1948552,220.273092 C71.5914284,217.788475 63.1128545,213.890254 55.758879,208.578313 C48.4049036,203.266372 42.5650695,196.498033 38.2392016,188.273092 C33.9133336,180.048152 31.8369482,170.281181 32.0099829,158.971888 L71.461701,158.971888 Z M224,66 L188,66 L188,35 L224,35 L224,66 Z M224,87 L224,154 L188,154 L188,87 L224,87 Z" id="Logo" fill="#000000"></path>
    </g>
</svg>