<?xml version="1.0" encoding="UTF-8"?>
<svg width="111px" height="54px" viewBox="0 0 111 54" version="1.1" xmlns="http://www.w3.org/2000/svg" xmlns:xlink="http://www.w3.org/1999/xlink">
    <title>logo-w_2</title>
    <g id="页面-1" stroke="none" stroke-width="1" fill="none" fill-rule="evenodd">
        <g id="画板" transform="translate(-427.000000, -169.000000)" fill="#fff">
            <g id="logo-w_2" transform="translate(427.000000, 169.000000)">
                <path d="M98.5791,5.58677 C98.8163,5.58677 99.0197,5.51924 99.1891,5.35044 C99.3585,5.18163 99.4263,5.01283 99.4263,4.776502 C99.4263,4.540176 99.3585,4.371371 99.1891,4.236327 C99.0197,4.101283 98.8163,4 98.5791,4 C98.3419,4 98.1386,4.0675219 97.9692,4.236327 C97.7997,4.405132 97.7319,4.573937 97.7319,4.810263 C97.7319,5.04659 97.7997,5.21539 97.9692,5.3842 C98.1725,5.51924 98.3419,5.58677 98.5791,5.58677 Z" id="路径" fill-rule="nonzero"></path>
                <path d="M70.4527,12.71028 C70.0122,12.71028 69.5716,12.64276 69.165,12.50771 C68.7245,12.37267 68.3856,12.20386 68.0806,12.0013 L67.5723,12.98037 C67.8773,13.21669 68.25,13.3855 68.7922,13.5543 C69.3005,13.68935 69.8427,13.79063 70.3849,13.79063 C71.2999,13.79063 72.0116,13.62182 72.5199,13.25045 C73.0621,12.87908 73.2993,12.40643 73.2993,11.79873 C73.2993,11.32608 73.1637,10.98847 72.9265,10.71838 C72.6893,10.44829 72.3843,10.27949 72.0454,10.1782 C71.7066,10.07692 71.266,9.97564 70.7238,9.87436 C70.3172,9.80683 69.9783,9.73931 69.775,9.67179 C69.5378,9.60427 69.3683,9.50299 69.1989,9.4017 C69.0294,9.26666 68.9617,9.09785 68.9617,8.86153 C68.9617,8.59144 69.0972,8.35511 69.3683,8.18631 C69.6394,8.0175 70.0461,7.91622 70.5544,7.91622 C71.2999,7.91622 71.9777,8.08502 72.5199,8.45639 L73.0621,7.47733 C72.7571,7.27476 72.3843,7.13972 71.9438,7.03843 C71.5032,6.93715 71.0288,6.86963 70.5883,6.86963 C69.7072,6.86963 69.0294,7.03843 68.5211,7.4098 C68.0128,7.78118 67.7417,8.28759 67.7417,8.89529 C67.7417,9.36794 67.8773,9.73931 68.1145,10.0094 C68.3517,10.27949 68.6567,10.44829 68.9956,10.58334 C69.3344,10.68462 69.775,10.7859 70.3511,10.88719 C70.7577,10.95471 71.0627,11.02223 71.266,11.05599 C71.4694,11.12351 71.6727,11.19103 71.8082,11.32608 C71.9438,11.46112 72.0116,11.59617 72.0116,11.79873 C72.0793,12.40643 71.5371,12.71028 70.4527,12.71028 Z" id="路径" fill-rule="nonzero"></path>
                <path d="M75.5692,11.62999 C75.5692,12.30521 75.7725,12.84538 76.1453,13.21675 C76.518,13.58812 77.0602,13.75693 77.738,13.75693 C78.0091,13.75693 78.2802,13.72317 78.5513,13.62188 C78.8224,13.55436 79.0257,13.41932 79.229,13.28427 L78.8563,12.40649 C78.5852,12.60905 78.2802,12.71034 77.9074,12.71034 C77.5685,12.71034 77.2974,12.60905 77.128,12.40649 C76.9586,12.20392 76.8569,11.93384 76.8569,11.56246 L76.8569,7.91628 L78.8224,7.91628 L78.8224,6.90345 L76.8569,6.90345 L76.8569,5.41797 L75.5692,5.41797 L75.5692,6.90345 L74.417,6.90345 L74.417,7.91628 L75.5692,7.91628 L75.5692,11.62999 Z" id="路径" fill-rule="nonzero"></path>
                <path d="M85.8038,10.41446 C85.8038,11.12344 85.6004,11.69738 85.2277,12.06875 C84.8549,12.47388 84.3466,12.64268 83.7027,12.64268 C83.1266,12.64268 82.6522,12.47388 82.3472,12.13627 C82.0422,11.79866 81.8728,11.29225 81.8728,10.65079 L81.8728,6.90332 L80.6528,6.90332 L80.6528,10.81959 C80.6528,11.79866 80.9239,12.5414 81.4322,13.01406 C81.9406,13.52047 82.6861,13.7568 83.5672,13.7568 C84.0416,13.7568 84.4821,13.65551 84.8888,13.45295 C85.2954,13.25038 85.6343,12.98029 85.8715,12.64268 L85.8715,13.65551 L87.0237,13.65551 L87.0237,6.90332 L85.8038,6.90332 L85.8038,10.41446 Z" id="路径" fill-rule="nonzero"></path>
                <path d="M90.4464,13.3181 C90.9547,13.62195 91.5647,13.75699 92.2086,13.75699 C92.7169,13.75699 93.1913,13.65571 93.598,13.45314 C94.0046,13.25058 94.3774,12.98049 94.6485,12.60912 L94.6485,13.68947 L95.8346,13.68947 L95.8346,4.202637 L94.6146,4.202637 L94.6146,7.9501 C94.3435,7.57873 94.0046,7.30865 93.598,7.13984 C93.1913,6.97104 92.7508,6.86975 92.2425,6.86975 C91.5986,6.86975 90.9886,7.0048 90.4803,7.30865 C89.972,7.61249 89.5653,8.01763 89.2604,8.52404 C88.9554,9.03045 88.8198,9.63815 88.8198,10.31337 C88.8198,10.98859 88.9554,11.59629 89.2604,12.13646 C89.4976,12.64288 89.9042,13.04801 90.4464,13.3181 Z M90.3109,9.06422 C90.5142,8.69285 90.7853,8.42276 91.1242,8.22019 C91.4631,8.01763 91.8697,7.91634 92.3103,7.91634 C92.7508,7.91634 93.1236,8.01763 93.4624,8.22019 C93.8013,8.42276 94.0724,8.69285 94.2757,9.06422 C94.4791,9.43559 94.5807,9.84072 94.5807,10.31337 C94.5807,10.78603 94.4791,11.19116 94.2757,11.56253 C94.0724,11.9339 93.8013,12.20399 93.4624,12.40655 C93.1236,12.60912 92.7169,12.7104 92.3103,12.7104 C91.8697,12.7104 91.4969,12.60912 91.1242,12.40655 C90.7853,12.20399 90.5142,11.9339 90.3109,11.56253 C90.1076,11.19116 90.0059,10.78603 90.0059,10.31337 C90.0059,9.84072 90.1076,9.40183 90.3109,9.06422 Z" id="形状" fill-rule="nonzero"></path>
                <polygon id="路径" fill-rule="nonzero" points="99.1892 6.90332 97.9692 6.90332 97.9692 13.68928 99.1892 13.68928"></polygon>
                <path d="M102.646,13.31804 C103.188,13.62189 103.798,13.75694 104.476,13.75694 C105.154,13.75694 105.764,13.62189 106.306,13.31804 C106.848,13.0142 107.255,12.60906 107.56,12.06889 C107.865,11.52871 108,10.95478 108,10.27956 C108,9.60434 107.865,9.0304 107.56,8.49023 C107.255,7.95005 106.848,7.54492 106.306,7.27483 C105.764,6.97098 105.154,6.83594 104.476,6.83594 C103.798,6.83594 103.188,6.97098 102.646,7.27483 C102.104,7.57868 101.697,7.98381 101.392,8.49023 C101.087,9.0304 100.952,9.60434 100.952,10.27956 C100.952,10.95478 101.087,11.52871 101.392,12.06889 C101.697,12.60906 102.104,13.0142 102.646,13.31804 Z M102.477,9.06416 C102.68,8.69279 102.951,8.4227 103.29,8.22014 C103.629,8.01757 104.035,7.91629 104.476,7.91629 C104.917,7.91629 105.289,8.01757 105.662,8.22014 C106.001,8.4227 106.272,8.69279 106.475,9.06416 C106.679,9.43553 106.78,9.84066 106.78,10.31332 C106.78,10.78597 106.679,11.1911 106.475,11.56247 C106.272,11.93384 106.001,12.20393 105.662,12.4065 C105.323,12.60906 104.917,12.71035 104.476,12.71035 C104.035,12.71035 103.663,12.60906 103.29,12.4065 C102.951,12.20393 102.68,11.93384 102.477,11.56247 C102.273,11.1911 102.172,10.78597 102.172,10.31332 C102.172,9.84066 102.273,9.40177 102.477,9.06416 Z" id="形状" fill-rule="nonzero"></path>
                <path d="M19.4516,42.2173 C16.1984,42.2173 13.5552,44.8506 13.5552,48.0917 C13.5552,51.3328 16.1984,53.9661 19.4516,53.9661 C22.7048,53.9661 25.3481,51.3328 25.3481,48.0917 C25.382,44.8506 22.7048,42.2173 19.4516,42.2173 Z" id="路径" fill-rule="nonzero"></path>
                <path d="M23.3147,13.75684 C21.9931,13.75684 20.807,14.4658 20.1632,15.5124 C18.1977,14.3983 15.8933,13.75684 13.4873,13.75684 C6.032,13.75684 0,19.7663 0,27.1937 C0,34.6211 6.032,40.6306 13.4873,40.6306 C20.9426,40.6306 26.9746,34.6211 26.9746,27.1937 C26.9746,24.7629 26.3307,22.5009 25.2124,20.5428 C26.2629,19.9013 26.9746,18.7535 26.9746,17.403 C26.9746,15.4111 25.348,13.75684 23.3147,13.75684 Z M13.4873,35.4651 C8.91246,35.4651 5.18481,31.7514 5.18481,27.1937 C5.18481,22.636 8.91246,18.9223 13.4873,18.9223 C18.0621,18.9223 21.7898,22.636 21.7898,27.1937 C21.7898,31.7514 18.0621,35.4651 13.4873,35.4651 Z" id="形状" fill-rule="nonzero"></path>
                <text id="laze" font-family="SFProRounded-Bold, SF Pro Rounded" font-size="42" font-weight="bold" letter-spacing="0.504545">
                    <tspan x="31" y="40">laze</tspan>
                </text>
            </g>
        </g>
    </g>
</svg>