<?xml version="1.0" encoding="UTF-8"?>
<svg width="109px" height="50px" viewBox="0 0 109 50" version="1.1" xmlns="http://www.w3.org/2000/svg" xmlns:xlink="http://www.w3.org/1999/xlink">
    <title>logo-w_2</title>
    <g id="页面-1" stroke="none" stroke-width="1" fill="none" fill-rule="evenodd">
        <g id="画板" transform="translate(-427.000000, -173.000000)" fill="#fff" fill-rule="nonzero">
            <g id="logo-w_2" transform="translate(427.000000, 173.000000)">
                <path d="M98.5791,1.58677 C98.8163,1.58677 99.0197,1.51924 99.1891,1.35044 C99.3585,1.18163 99.4263,1.01283 99.4263,0.776502 C99.4263,0.540176 99.3585,0.371371 99.1891,0.236327 C99.0197,0.101283 98.8163,0 98.5791,0 C98.3419,0 98.1386,0.0675219 97.9692,0.236327 C97.7997,0.405132 97.7319,0.573937 97.7319,0.810263 C97.7319,1.04659 97.7997,1.21539 97.9692,1.3842 C98.1725,1.51924 98.3419,1.58677 98.5791,1.58677 Z" id="路径"></path>
                <path d="M70.4527,8.71028 C70.0122,8.71028 69.5716,8.64276 69.165,8.50771 C68.7245,8.37267 68.3856,8.20386 68.0806,8.0013 L67.5723,8.98037 C67.8773,9.21669 68.25,9.3855 68.7922,9.5543 C69.3005,9.68935 69.8427,9.79063 70.3849,9.79063 C71.2999,9.79063 72.0116,9.62182 72.5199,9.25045 C73.0621,8.87908 73.2993,8.40643 73.2993,7.79873 C73.2993,7.32608 73.1637,6.98847 72.9265,6.71838 C72.6893,6.44829 72.3843,6.27949 72.0454,6.1782 C71.7066,6.07692 71.266,5.97564 70.7238,5.87436 C70.3172,5.80683 69.9783,5.73931 69.775,5.67179 C69.5378,5.60427 69.3683,5.50299 69.1989,5.4017 C69.0294,5.26666 68.9617,5.09785 68.9617,4.86153 C68.9617,4.59144 69.0972,4.35511 69.3683,4.18631 C69.6394,4.0175 70.0461,3.91622 70.5544,3.91622 C71.2999,3.91622 71.9777,4.08502 72.5199,4.45639 L73.0621,3.47733 C72.7571,3.27476 72.3843,3.13972 71.9438,3.03843 C71.5032,2.93715 71.0288,2.86963 70.5883,2.86963 C69.7072,2.86963 69.0294,3.03843 68.5211,3.4098 C68.0128,3.78118 67.7417,4.28759 67.7417,4.89529 C67.7417,5.36794 67.8773,5.73931 68.1145,6.0094 C68.3517,6.27949 68.6567,6.44829 68.9956,6.58334 C69.3344,6.68462 69.775,6.7859 70.3511,6.88719 C70.7577,6.95471 71.0627,7.02223 71.266,7.05599 C71.4694,7.12351 71.6727,7.19103 71.8082,7.32608 C71.9438,7.46112 72.0116,7.59617 72.0116,7.79873 C72.0793,8.40643 71.5371,8.71028 70.4527,8.71028 Z" id="路径"></path>
                <path d="M75.5692,7.62999 C75.5692,8.30521 75.7725,8.84538 76.1453,9.21675 C76.518,9.58812 77.0602,9.75693 77.738,9.75693 C78.0091,9.75693 78.2802,9.72317 78.5513,9.62188 C78.8224,9.55436 79.0257,9.41932 79.229,9.28427 L78.8563,8.40649 C78.5852,8.60905 78.2802,8.71034 77.9074,8.71034 C77.5685,8.71034 77.2974,8.60905 77.128,8.40649 C76.9586,8.20392 76.8569,7.93384 76.8569,7.56246 L76.8569,3.91628 L78.8224,3.91628 L78.8224,2.90345 L76.8569,2.90345 L76.8569,1.41797 L75.5692,1.41797 L75.5692,2.90345 L74.417,2.90345 L74.417,3.91628 L75.5692,3.91628 L75.5692,7.62999 Z" id="路径"></path>
                <path d="M85.8038,6.41446 C85.8038,7.12344 85.6004,7.69738 85.2277,8.06875 C84.8549,8.47388 84.3466,8.64268 83.7027,8.64268 C83.1266,8.64268 82.6522,8.47388 82.3472,8.13627 C82.0422,7.79866 81.8728,7.29225 81.8728,6.65079 L81.8728,2.90332 L80.6528,2.90332 L80.6528,6.81959 C80.6528,7.79866 80.9239,8.5414 81.4322,9.01406 C81.9406,9.52047 82.6861,9.7568 83.5672,9.7568 C84.0416,9.7568 84.4821,9.65551 84.8888,9.45295 C85.2954,9.25038 85.6343,8.98029 85.8715,8.64268 L85.8715,9.65551 L87.0237,9.65551 L87.0237,2.90332 L85.8038,2.90332 L85.8038,6.41446 Z" id="路径"></path>
                <path d="M90.4464,9.3181 C90.9547,9.62195 91.5647,9.75699 92.2086,9.75699 C92.7169,9.75699 93.1913,9.65571 93.598,9.45314 C94.0046,9.25058 94.3774,8.98049 94.6485,8.60912 L94.6485,9.68947 L95.8346,9.68947 L95.8346,0.202637 L94.6146,0.202637 L94.6146,3.9501 C94.3435,3.57873 94.0046,3.30865 93.598,3.13984 C93.1913,2.97104 92.7508,2.86975 92.2425,2.86975 C91.5986,2.86975 90.9886,3.0048 90.4803,3.30865 C89.972,3.61249 89.5653,4.01763 89.2604,4.52404 C88.9554,5.03045 88.8198,5.63815 88.8198,6.31337 C88.8198,6.98859 88.9554,7.59629 89.2604,8.13646 C89.4976,8.64288 89.9042,9.04801 90.4464,9.3181 Z M90.3109,5.06422 C90.5142,4.69285 90.7853,4.42276 91.1242,4.22019 C91.4631,4.01763 91.8697,3.91634 92.3103,3.91634 C92.7508,3.91634 93.1236,4.01763 93.4624,4.22019 C93.8013,4.42276 94.0724,4.69285 94.2757,5.06422 C94.4791,5.43559 94.5807,5.84072 94.5807,6.31337 C94.5807,6.78603 94.4791,7.19116 94.2757,7.56253 C94.0724,7.9339 93.8013,8.20399 93.4624,8.40655 C93.1236,8.60912 92.7169,8.7104 92.3103,8.7104 C91.8697,8.7104 91.4969,8.60912 91.1242,8.40655 C90.7853,8.20399 90.5142,7.9339 90.3109,7.56253 C90.1076,7.19116 90.0059,6.78603 90.0059,6.31337 C90.0059,5.84072 90.1076,5.40183 90.3109,5.06422 Z" id="形状"></path>
                <polygon id="路径" points="99.1892 2.90332 97.9692 2.90332 97.9692 9.68928 99.1892 9.68928"></polygon>
                <path d="M102.646,9.31804 C103.188,9.62189 103.798,9.75694 104.476,9.75694 C105.154,9.75694 105.764,9.62189 106.306,9.31804 C106.848,9.0142 107.255,8.60906 107.56,8.06889 C107.865,7.52871 108,6.95478 108,6.27956 C108,5.60434 107.865,5.0304 107.56,4.49023 C107.255,3.95005 106.848,3.54492 106.306,3.27483 C105.764,2.97098 105.154,2.83594 104.476,2.83594 C103.798,2.83594 103.188,2.97098 102.646,3.27483 C102.104,3.57868 101.697,3.98381 101.392,4.49023 C101.087,5.0304 100.952,5.60434 100.952,6.27956 C100.952,6.95478 101.087,7.52871 101.392,8.06889 C101.697,8.60906 102.104,9.0142 102.646,9.31804 Z M102.477,5.06416 C102.68,4.69279 102.951,4.4227 103.29,4.22014 C103.629,4.01757 104.035,3.91629 104.476,3.91629 C104.917,3.91629 105.289,4.01757 105.662,4.22014 C106.001,4.4227 106.272,4.69279 106.475,5.06416 C106.679,5.43553 106.78,5.84066 106.78,6.31332 C106.78,6.78597 106.679,7.1911 106.475,7.56247 C106.272,7.93384 106.001,8.20393 105.662,8.4065 C105.323,8.60906 104.917,8.71035 104.476,8.71035 C104.035,8.71035 103.663,8.60906 103.29,8.4065 C102.951,8.20393 102.68,7.93384 102.477,7.56247 C102.273,7.1911 102.172,6.78597 102.172,6.31332 C102.172,5.84066 102.273,5.40177 102.477,5.06416 Z" id="形状"></path>
                <path d="M19.4516,38.2173 C16.1984,38.2173 13.5552,40.8506 13.5552,44.0917 C13.5552,47.3328 16.1984,49.9661 19.4516,49.9661 C22.7048,49.9661 25.3481,47.3328 25.3481,44.0917 C25.382,40.8506 22.7048,38.2173 19.4516,38.2173 Z" id="路径"></path>
                <path d="M23.3147,9.75684 C21.9931,9.75684 20.807,10.4658 20.1632,11.5124 C18.1977,10.3983 15.8933,9.75684 13.4873,9.75684 C6.032,9.75684 0,15.7663 0,23.1937 C0,30.6211 6.032,36.6306 13.4873,36.6306 C20.9426,36.6306 26.9746,30.6211 26.9746,23.1937 C26.9746,20.7629 26.3307,18.5009 25.2124,16.5428 C26.2629,15.9013 26.9746,14.7535 26.9746,13.403 C26.9746,11.4111 25.348,9.75684 23.3147,9.75684 Z M13.4873,31.4651 C8.91246,31.4651 5.18481,27.7514 5.18481,23.1937 C5.18481,18.636 8.91246,14.9223 13.4873,14.9223 C18.0621,14.9223 21.7898,18.636 21.7898,23.1937 C21.7898,27.7514 18.0621,31.4651 13.4873,31.4651 Z" id="形状"></path>
                <g id="laze" transform="translate(33.091797, 5.956055)">
                    <path d="M2.99414062,30.4746094 C4.7578125,30.4746094 5.98828125,29.4082031 5.98828125,27.3574219 L5.98828125,3.13769531 C5.98828125,1.08691406 4.7578125,0 2.99414062,0 C1.25097656,0 0,1.08691406 0,3.13769531 L0,27.3574219 C0,29.4082031 1.25097656,30.4746094 2.99414062,30.4746094 Z" id="路径"></path>
                    <path d="M17.0338419,30.3925781 C19.7818888,30.3925781 22.5299356,29.0185547 23.7604044,26.6806641 L23.8834513,26.6806641 L23.8834513,27.8085938 C24.0064981,29.5722656 25.1344278,30.4746094 26.754545,30.4746094 C28.4566934,30.4746094 29.6666544,29.4492188 29.6666544,27.4599609 L29.6666544,14.9296875 C29.6666544,10.5 25.9957559,7.58789062 20.3561075,7.58789062 C15.8033731,7.58789062 12.2760294,9.20800781 11.2506388,11.8330078 C11.0455606,12.2841797 10.9430216,12.7148438 10.9430216,13.1865234 C10.9430216,14.5400391 11.98892,15.4833984 13.4449747,15.4833984 C14.4088419,15.4833984 15.1676309,15.1142578 15.8238809,14.3759766 C17.1568888,12.6533203 18.2643106,12.0585938 20.0895059,12.0585938 C22.3453653,12.0585938 23.7809122,13.2480469 23.7809122,15.2988281 L23.7809122,16.7548828 L18.2438028,17.0830078 C12.7477091,17.4111328 9.67153719,19.7285156 9.67153719,23.7275391 C9.67153719,27.6855469 12.8502481,30.3925781 17.0338419,30.3925781 Z M19.0025919,26.0654297 C16.9928263,26.0654297 15.6393106,25.0400391 15.6393106,23.3994141 C15.6393106,21.8408203 16.910795,20.8359375 19.1461466,20.671875 L23.7809122,20.3847656 L23.7809122,21.984375 C23.7809122,24.3632812 21.6275919,26.0654297 19.0025919,26.0654297 Z" id="形状"></path>
                    <path d="M36.0774494,30.0439453 L49.57159,30.0439453 C51.0891681,30.0439453 51.9915119,29.203125 51.9915119,27.7470703 C51.9915119,26.2910156 51.0891681,25.4501953 49.57159,25.4501953 L41.1223713,25.4501953 L41.1223713,25.3476562 L50.4739338,13.1044922 C51.1711994,12.2226562 51.4378009,11.5458984 51.4378009,10.6845703 C51.4378009,9.06445312 50.3508869,8.05957031 48.587215,8.05957031 L35.79034,8.05957031 C34.2522541,8.05957031 33.3704181,8.90039062 33.3704181,10.3359375 C33.3704181,11.7919922 34.2727619,12.6328125 35.79034,12.6328125 L44.4651447,12.6328125 L44.4651447,12.7558594 L34.3342853,25.59375 C33.7190509,26.3320312 33.493465,26.8857422 33.493465,27.6650391 C33.493465,29.1005859 34.4983478,30.0439453 36.0774494,30.0439453 Z" id="路径"></path>
                    <path d="M65.3544553,30.515625 C69.5995725,30.515625 73.0038694,28.9160156 74.4599241,26.2089844 C74.7265256,25.7167969 74.8700803,25.2246094 74.8700803,24.7529297 C74.8700803,23.3789062 73.8241819,22.5585938 72.5321897,22.5585938 C71.7528928,22.5585938 71.2196897,22.7841797 70.5839475,23.4404297 C68.9638303,25.3476562 67.5282834,26.0859375 65.3339475,26.0859375 C62.2987913,26.0859375 60.3300413,23.953125 60.3300413,20.6923828 L60.3300413,20.4257812 L72.8808225,20.4257812 C74.5419553,20.4257812 75.4853147,19.4824219 75.4853147,17.8212891 C75.4853147,11.8535156 71.3017209,7.58789062 65.0673459,7.58789062 C58.5663694,7.58789062 54.4442991,12.0791016 54.4442991,19.1542969 C54.4442991,26.2705078 58.4843381,30.515625 65.3544553,30.515625 Z M60.3915647,16.7548828 C60.5966428,13.9453125 62.5038694,12.0175781 65.1288694,12.0175781 C67.7538694,12.0175781 69.5995725,13.8837891 69.7226194,16.7548828 L60.3915647,16.7548828 Z" id="形状"></path>
                </g>
            </g>
        </g>
    </g>
</svg>